<svg width="19" height="18" viewBox="0 0 19 18" fill="none" xmlns="http://www.w3.org/2000/svg">
<path d="M14.1124 11.3866L14.2998 11.2033L18.1064 7.48001C18.1064 7.48 18.1064 7.47999 18.1064 7.47997C18.2451 7.34383 18.2949 7.14076 18.235 6.95777L18.2338 6.95421C18.1753 6.77116 18.017 6.63741 17.8276 6.60986L17.8274 6.60983L12.5642 5.84204L12.3039 5.80407L12.1878 5.56806L9.83317 0.783626L9.8331 0.783496C9.74721 0.608848 9.572 0.5 9.37968 0.5C9.18769 0.5 9.01203 0.609337 8.92741 0.782685L8.9267 0.784132L6.57208 5.56856L6.45594 5.80456L6.19566 5.84254L0.933719 6.6103L0.933493 6.61033C0.743419 6.63824 0.584988 6.77139 0.524578 6.95621C0.46504 7.14299 0.51578 7.34539 0.653208 7.47924L0.653947 7.47996L4.46209 11.2043L4.64952 11.3876L4.60533 11.6461L3.70625 16.9045L3.70623 16.9046C3.67342 17.0962 3.75186 17.2894 3.90744 17.4037C4.0647 17.517 4.27066 17.5312 4.43985 17.4417L4.4402 17.4416L9.14692 14.959L9.38018 14.836L9.61345 14.959L14.3201 17.4415C14.3945 17.4807 14.4752 17.4999 14.5553 17.4999C14.6599 17.4999 14.7646 17.4671 14.8523 17.4031C15.0085 17.2887 15.0875 17.0946 15.0551 16.9034L14.1124 11.3866ZM14.1124 11.3866L14.1565 11.645M14.1124 11.3866L14.1565 11.645M14.1565 11.645L15.0551 16.9031L14.1565 11.645Z" fill="#F1CA3F" stroke="#F1CA3F"/>
</svg>
