<svg width="23" height="20" viewBox="0 0 23 20" fill="none" xmlns="http://www.w3.org/2000/svg">
<path d="M16.7109 6.73828C14.4064 6.73828 12.3878 7.98446 11.2926 9.83807L5.79515 7.46844C5.82394 7.30412 5.83984 7.13535 5.83984 6.96289C5.83984 6.79044 5.82394 6.62166 5.79515 6.45734L11.4269 4.02981C11.8803 4.58567 12.5702 4.94141 13.3418 4.94141C14.7041 4.94141 15.8125 3.83305 15.8125 2.4707C15.8125 1.10836 14.7041 0 13.3418 0C11.9795 0 10.8711 1.10836 10.8711 2.4707C10.8711 2.57986 10.879 2.68714 10.8927 2.79261L5.26116 5.22006C4.72834 4.50611 3.87725 4.04297 2.91992 4.04297C1.30988 4.04297 0 5.35285 0 6.96289C0 8.57294 1.30988 9.88281 2.91992 9.88281C3.87725 9.88281 4.72834 9.41967 5.26116 8.70577L10.7356 11.0655C10.5323 11.6831 10.4219 12.3425 10.4219 13.0273C10.4219 16.4951 13.2431 19.3164 16.7109 19.3164C20.1787 19.3164 23 16.4951 23 13.0273C23 9.55956 20.1787 6.73828 16.7109 6.73828ZM13.3418 1.34766C13.961 1.34766 14.4648 1.85146 14.4648 2.4707C14.4648 3.08995 13.961 3.59375 13.3418 3.59375C12.7225 3.59375 12.2188 3.08995 12.2188 2.4707C12.2188 1.85146 12.7225 1.34766 13.3418 1.34766ZM2.91992 8.53516C2.05297 8.53516 1.34766 7.82984 1.34766 6.96289C1.34766 6.09594 2.05297 5.39062 2.91992 5.39062C3.78687 5.39062 4.49219 6.09594 4.49219 6.96289C4.49219 7.82984 3.78687 8.53516 2.91992 8.53516ZM14.2402 17.3054V17.2949C14.2402 15.9326 15.3486 14.8242 16.7109 14.8242C18.0733 14.8242 19.1816 15.9326 19.1816 17.2949V17.3054C18.4544 17.7271 17.6104 17.9688 16.7109 17.9688C15.8115 17.9688 14.9675 17.7271 14.2402 17.3054ZM15.5879 12.3535C15.5879 11.7343 16.0917 11.2305 16.7109 11.2305C17.3302 11.2305 17.834 11.7343 17.834 12.3535C17.834 12.9728 17.3302 13.4766 16.7109 13.4766C16.0917 13.4766 15.5879 12.9728 15.5879 12.3535ZM20.4001 16.311C20.1322 15.3075 19.465 14.4661 18.5797 13.967C18.9542 13.5337 19.1816 12.9698 19.1816 12.3535C19.1816 10.9912 18.0733 9.88281 16.7109 9.88281C15.3486 9.88281 14.2402 10.9912 14.2402 12.3535C14.2402 12.9698 14.4676 13.5337 14.8422 13.967C13.9569 14.4661 13.2896 15.3075 13.0218 16.311C12.2434 15.4374 11.7695 14.2867 11.7695 13.0273C11.7695 10.3027 13.9862 8.08594 16.7109 8.08594C19.4356 8.08594 21.6523 10.3027 21.6523 13.0273C21.6523 14.2867 21.1785 15.4374 20.4001 16.311Z" fill="#444444"/>
</svg>
