<svg width="16" height="21" viewBox="0 0 16 21" fill="none" xmlns="http://www.w3.org/2000/svg">
<path d="M7.845 0C3.51927 0 0 3.252 0 7.24922C0 8.59975 0.404846 9.91774 1.17104 11.0612L7.39845 20.3344C7.51773 20.5121 7.72789 20.62 7.95391 20.62C7.95566 20.62 7.95736 20.62 7.9591 20.62C8.18709 20.6183 8.39768 20.5071 8.51479 20.3263L14.5835 10.9632C15.3074 9.84396 15.69 8.55968 15.69 7.24922C15.69 3.252 12.1707 0 7.845 0ZM13.4614 10.3429L7.94402 18.8555L2.28233 10.4246C1.64457 9.47288 1.29878 8.37486 1.29878 7.24922C1.29878 3.9182 4.24022 1.20015 7.845 1.20015C11.4498 1.20015 14.3869 3.9182 14.3869 7.24922C14.3869 8.34147 14.0639 9.41142 13.4614 10.3429Z" fill="#444444"/>
<path d="M7.845 3.6246C5.68213 3.6246 3.9225 5.2506 3.9225 7.24921C3.9225 9.23505 5.6535 10.8738 7.845 10.8738C10.0635 10.8738 11.7675 9.21322 11.7675 7.24921C11.7675 5.2506 10.0079 3.6246 7.845 3.6246ZM7.845 9.67367C6.39555 9.67367 5.22128 8.58496 5.22128 7.24921C5.22128 5.9168 6.40309 4.82475 7.845 4.82475C9.28691 4.82475 10.4644 5.9168 10.4644 7.24921C10.4644 8.56546 9.31742 9.67367 7.845 9.67367Z" fill="#444444"/>
</svg>
