<svg width="60" height="54" viewBox="0 0 60 54" fill="none" xmlns="http://www.w3.org/2000/svg">
<path d="M12.6054 34.1237C12.6054 37.2455 9.77143 39.7961 6.30268 39.7961C2.83393 39.7961 0 37.2455 0 34.1237C0 31.0018 2.83393 28.4513 6.30268 28.4513H12.6054V34.1237ZM15.7821 34.1237C15.7821 31.0018 18.6161 28.4513 22.0848 28.4513C25.5536 28.4513 28.3875 31.0018 28.3875 34.1237V48.3276C28.3875 51.4495 25.5536 54 22.0848 54C18.6161 54 15.7821 51.4495 15.7821 48.3276V34.1237ZM22.0848 11.3448C18.6161 11.3448 15.7821 8.79429 15.7821 5.67241C15.7821 2.55054 18.6161 0 22.0848 0C25.5536 0 28.3875 2.55054 28.3875 5.67241V11.3448H22.0848V11.3448ZM22.0848 14.2039C25.5536 14.2039 28.3875 16.7545 28.3875 19.8763C28.3875 22.9982 25.5536 25.5488 22.0848 25.5488H6.30268C2.83393 25.5488 0 22.9982 0 19.8763C0 16.7545 2.83393 14.2039 6.30268 14.2039H22.0848V14.2039ZM47.3946 19.8763C47.3946 16.7545 50.2286 14.2039 53.6973 14.2039C57.1661 14.2039 60 16.7545 60 19.8763C60 22.9982 57.1661 25.5488 53.6973 25.5488H47.3946V19.8763V19.8763ZM44.2179 19.8763C44.2179 22.9982 41.3839 25.5488 37.9152 25.5488C34.4464 25.5488 31.6125 22.9982 31.6125 19.8763V5.67241C31.6125 2.55054 34.4464 0 37.9152 0C41.3839 0 44.2179 2.55054 44.2179 5.67241V19.8763V19.8763ZM37.9152 42.6552C41.3839 42.6552 44.2179 45.2057 44.2179 48.3276C44.2179 51.4495 41.3839 54 37.9152 54C34.4464 54 31.6125 51.4495 31.6125 48.3276V42.6552H37.9152ZM37.9152 39.7961C34.4464 39.7961 31.6125 37.2455 31.6125 34.1237C31.6125 31.0018 34.4464 28.4513 37.9152 28.4513H53.6973C57.1661 28.4513 60 31.0018 60 34.1237C60 37.2455 57.1661 39.7961 53.6973 39.7961H37.9152Z" fill="#0675CE"/>
</svg>
