<svg width="132" height="28" viewBox="0 0 132 28" fill="none" xmlns="http://www.w3.org/2000/svg">
<path d="M118.968 10.8885C119.3 11.0261 119.376 11.1768 119.235 11.5181C118.988 12.1113 118.779 12.721 118.585 13.3406C118.483 13.672 118.342 13.7316 118.02 13.6074C117.181 13.3039 116.286 13.1836 115.396 13.2545C113.96 13.3257 113.035 14.174 112.81 15.5823C112.7 16.306 112.707 17.0425 112.828 17.7643C113.005 18.9042 113.683 19.5371 114.876 19.7375C116.015 19.9032 117.176 19.8565 118.298 19.6C118.65 19.5288 118.751 19.6 118.796 19.9496C118.885 20.6041 119.005 21.2535 119.149 21.898C119.217 22.1996 119.176 22.3139 118.851 22.3951C116.898 22.8783 114.859 22.8903 112.901 22.4299C110.601 21.8947 109.319 20.3771 109.055 17.9996C108.926 16.8398 108.889 15.68 109.221 14.5302C109.884 12.1361 111.949 10.5108 114.559 10.3302C114.924 10.3054 115.29 10.3302 115.655 10.3302L115.652 10.317C116.786 10.2535 117.921 10.449 118.968 10.8885ZM123.573 6.01423C123.965 6.00263 124.021 6.15343 124.02 6.49473C124.006 9.10753 124.02 11.7203 124.02 14.333V14.9958C124.565 14.2717 125.014 13.6703 125.474 13.0656C126.017 12.341 126.559 11.6153 127.101 10.8885C127.203 10.751 127.29 10.5986 127.504 10.6003H131.258L128.993 13.4483C128.384 14.2104 127.782 14.9792 127.169 15.7314C126.975 15.9683 126.925 16.1323 127.169 16.3941C127.814 17.0784 128.424 17.7958 129.052 18.4949C129.762 19.2852 130.684 19.721 131.671 20.0457V20.5676L131.659 20.561C131.417 21.0895 131.415 21.6661 131.342 22.2178C131.291 22.6071 131.177 22.7712 130.734 22.7463C128.744 22.637 127.142 21.8831 125.983 20.223C125.398 19.3846 124.739 18.5977 124.02 17.6632V18.3425C124.02 19.5801 124.008 20.8161 124.02 22.0538C124.02 22.3851 123.933 22.516 123.585 22.5077C122.645 22.4895 121.701 22.4912 120.766 22.5077C120.459 22.5077 120.341 22.4348 120.341 22.1018C120.35 16.8762 120.35 11.6501 120.341 6.42353C120.341 6.09213 120.434 6.00763 120.754 6.01423C121.695 6.03413 122.638 6.04073 123.573 6.01423ZM63.3447 10.582C65.003 10.9797 65.7857 12.0317 65.8321 13.7499C65.8465 14.3419 65.8417 14.9339 65.8369 15.5264L65.8321 16.4157L65.8338 16.4239C65.8338 17.2772 65.8636 18.1321 65.8221 18.9854C65.7973 19.5172 65.9979 19.7922 66.5087 19.8038C66.8403 19.8038 66.91 19.948 66.8884 20.2478C66.8387 20.9238 66.8121 21.6031 66.7856 22.2824C66.7856 22.4597 66.7475 22.5856 66.5336 22.5922C65.4159 22.6287 64.2982 22.6436 63.2667 22.1117C63.0885 22.0384 62.9365 21.9132 62.8306 21.7522C62.6183 21.2983 62.4061 21.4772 62.1225 21.6727C60.7437 22.6746 58.9707 22.963 57.345 22.4497C55.9139 22.0289 55.1246 21 55.035 19.5039C54.9306 17.7593 55.5325 16.6509 56.9487 16.0246C57.874 15.6038 58.869 15.4928 59.8639 15.458C60.5438 15.4332 61.2237 15.4398 61.9036 15.458C62.1756 15.458 62.2568 15.3702 62.2685 15.0985C62.3066 13.9984 61.9666 13.5858 60.8589 13.4201C59.519 13.2329 58.2206 13.5196 56.9288 13.7996C56.5723 13.8774 56.4313 13.8327 56.3534 13.4682C56.2058 12.8254 56.0217 12.1908 55.831 11.5562C55.7614 11.3226 55.8144 11.2116 56.0482 11.1271C58.4279 10.2557 60.8573 9.99223 63.3447 10.582ZM104.405 10.5174C106.17 10.8687 107.039 11.9241 107.083 13.7283C107.105 14.5816 107.083 15.4348 107.083 16.2881H107.093V16.298C107.093 17.1861 107.122 18.0758 107.083 18.9605C107.059 19.5155 107.279 19.7889 107.811 19.8055C108.156 19.8055 108.191 19.9446 108.165 20.2545C108.107 20.894 108.1 21.5401 108.083 22.1846C108.083 22.4547 107.979 22.6005 107.685 22.6071C106.76 22.6254 105.84 22.6071 104.951 22.3056C104.599 22.1896 104.243 22.0206 104.069 21.6893C103.871 21.3132 103.701 21.4623 103.477 21.6213C102.006 22.6585 100.399 22.9584 98.6677 22.4497C97.2101 22.0272 96.3975 20.9967 96.2997 19.4907C96.1803 17.7792 96.8436 16.6178 98.2764 15.9965C99.2863 15.5607 100.361 15.4713 101.445 15.453C102.003 15.4431 102.561 15.4315 103.119 15.453C103.45 15.4696 103.52 15.3437 103.523 15.0355C103.523 13.9205 103.259 13.5792 102.139 13.4201C100.802 13.2296 99.5035 13.5212 98.2117 13.7979C97.8634 13.8725 97.7142 13.841 97.6346 13.4665C97.497 12.8403 97.303 12.2239 97.1272 11.6059C97.0526 11.3525 97.0675 11.2199 97.3676 11.1089C99.6125 10.2602 102.05 10.0553 104.405 10.5174ZM42.4736 7.05643C42.8185 7.05643 42.9528 7.16903 43.0473 7.48553C44.1926 11.2983 45.3462 15.109 46.5082 18.9174C46.5728 19.1326 46.6456 19.3444 46.7549 19.6785C47.1101 18.712 47.4285 17.8571 47.7403 16.9872C48.8723 13.8471 50.0005 10.7052 51.1248 7.56173C51.2542 7.20053 51.4133 7.04143 51.8229 7.06463C52.7449 7.09943 53.6703 7.09453 54.5939 7.06463C55.04 7.05143 55.113 7.14583 54.9438 7.57163C53.5956 10.9648 52.2707 14.3645 50.9391 17.7676C50.3869 19.1759 49.828 20.5842 49.2941 21.9974C49.1548 22.3686 48.984 22.5425 48.5478 22.5293C47.2942 22.4945 46.0372 22.4994 44.7835 22.5293C44.3773 22.5375 44.2164 22.3951 44.0904 22.0223C42.4564 17.2164 40.812 12.4117 39.157 7.60813C39.1072 7.46233 39.0326 7.32483 38.9696 7.18393V7.07963C40.1304 7.07623 41.3061 7.07623 42.4736 7.05643ZM76.8099 10.3766C78.5014 10.698 79.2791 11.6192 79.4449 13.3373C79.5759 14.6926 79.5162 16.0512 79.5278 17.4081C79.5395 18.939 79.5179 20.4732 79.5394 22.0041C79.5394 22.3801 79.4599 22.5309 79.0519 22.5177C78.1465 22.4895 77.2394 22.4928 76.334 22.5177C75.9708 22.5276 75.8614 22.4199 75.863 22.0521C75.8796 19.8585 75.863 17.6649 75.8713 15.4713C75.8807 15.1059 75.8518 14.7405 75.7851 14.3811C75.6524 13.7548 75.3639 13.4947 74.7138 13.4467C73.8252 13.3883 72.9341 13.5176 72.0987 13.8261C71.7207 13.9586 71.5664 14.1326 71.5714 14.5667C71.5979 17.0386 71.5714 19.5106 71.593 21.9842C71.593 22.3818 71.5051 22.5342 71.0789 22.521C70.1735 22.4912 69.2664 22.5011 68.361 22.521C68.0409 22.521 67.9049 22.4613 67.9049 22.0919C67.9193 18.3839 67.9193 14.6755 67.9049 10.9664C67.9049 10.6351 68.0144 10.5522 68.3262 10.5572C69.2316 10.5738 70.1387 10.587 71.0441 10.5572C71.4835 10.5406 71.6411 10.6732 71.5896 11.1072C71.5438 11.3015 71.5636 11.5054 71.646 11.6871L71.656 11.6772C72.0523 11.4486 72.4337 11.2183 72.8168 11.0045C74.0298 10.3248 75.4465 10.102 76.8099 10.3766ZM94.4291 7.04483C94.7144 7.04483 94.8222 7.11103 94.8222 7.41923C94.8133 12.3134 94.8133 17.2082 94.8222 22.1035C94.8222 22.4497 94.6862 22.5028 94.391 22.4994C93.4325 22.4862 92.474 22.4796 91.5139 22.4994C91.1308 22.5094 91.0529 22.3586 91.0562 22.0024C91.0711 20.2081 91.0562 18.4138 91.0711 16.6194C91.0711 16.2351 90.9799 16.1224 90.5737 16.1224C88.6943 16.1445 86.8116 16.1445 84.9255 16.1224C84.5541 16.1224 84.4579 16.2367 84.4612 16.5962C84.4778 18.374 84.4496 20.1501 84.4811 21.9262C84.4894 22.4067 84.3369 22.511 83.8908 22.4928C83.0202 22.458 82.1463 22.453 81.2757 22.4928C80.7782 22.5177 80.7069 22.3271 80.7118 21.8914C80.7301 19.5039 80.7201 17.1181 80.7201 14.7323L80.7384 14.7588C80.7384 12.3548 80.7483 9.95413 80.7301 7.54683C80.7301 7.15083 80.8412 7.04973 81.2276 7.04973C82.1678 7.07793 83.1097 7.07293 84.0467 7.04973C84.3916 7.04973 84.4894 7.14913 84.4861 7.49043C84.4712 9.25003 84.4977 11.0095 84.4662 12.769C84.4579 13.2478 84.6088 13.3423 85.0549 13.3357C86.879 13.3108 88.7164 13.3141 90.5471 13.3357C90.9501 13.3357 91.0827 13.2429 91.0761 12.8204C91.0512 11.0609 91.0761 9.30133 91.0562 7.54183C91.0562 7.14583 91.164 7.04483 91.5537 7.04483C92.5122 7.07293 93.4707 7.06303 94.4291 7.04483ZM62.0297 17.6168C61.1508 17.6699 60.252 17.5141 59.393 17.8156C58.8026 18.0228 58.5357 18.4403 58.602 19.0036C58.6551 19.4642 59.0481 19.7872 59.6434 19.8469C60.2169 19.8848 60.7927 19.8288 61.3481 19.6812C62.2568 19.4708 62.2568 19.4725 62.2552 18.5645C62.2552 18.3375 62.2535 18.1122 62.2552 17.8935C62.2552 17.7378 62.217 17.6052 62.0297 17.6168ZM102.064 17.6284C101.617 17.6061 101.169 17.6559 100.737 17.7759H100.736C100.124 17.978 99.7937 18.4287 99.8567 18.9704C99.9147 19.4675 100.343 19.7988 100.989 19.8469C101.636 19.8949 102.265 19.7442 102.898 19.6282C103.361 19.5437 103.553 19.3747 103.531 18.8545C103.482 17.6069 103.517 17.6069 102.064 17.6284Z" fill="#21AAEB"/>
<path d="M2.7163 6.9453L7.31305 15.9418C7.47888 15.3735 7.62481 14.9228 7.75747 14.4689C9.13606 9.7934 10.5107 5.1195 11.8816 0.4473C11.9861 0.0878 12.1353 0 12.4935 0C14.4834 0.0182 16.4833 0.00829983 18.4782 0.00829983H18.9492C18.5926 1.2227 18.251 2.3924 17.9061 3.5605C15.5646 11.4944 13.2265 19.4288 10.8916 27.3638C10.7672 27.7896 10.6014 27.9188 10.1603 27.9105C8.48048 27.8807 6.79898 27.8907 5.11749 27.9105C4.86802 27.9428 4.6315 27.791 4.55699 27.551C3.12976 24.36 1.69258 21.1729 0.245459 17.9896C0.159555 17.8244 0.136575 17.6336 0.180786 17.4528C1.02817 13.9917 1.85565 10.534 2.7163 6.9453Z" fill="#21AAEB"/>
<path d="M34.3364 0.0547121C34.0213 1.13331 33.7112 2.20851 33.3928 3.29041C31.0148 11.3414 28.638 19.3929 26.2622 27.445C26.161 27.7913 26.0251 27.9072 25.6569 27.9039C23.599 27.884 21.5411 27.894 19.4832 27.894C19.4069 27.894 19.3289 27.8824 19.1996 27.8741C19.5014 26.8469 19.7966 25.8445 20.0917 24.8421C20.7633 22.5591 21.4283 20.2727 22.1165 17.9946C22.2342 17.6069 22.1662 17.5091 21.7633 17.5124C19.9889 17.529 18.2129 17.5124 16.4385 17.5124C15.8167 17.5124 15.8117 17.5124 15.9759 16.8928C16.4734 15.0322 16.9791 13.1733 17.4683 11.3094C17.5546 10.978 17.6972 10.8554 18.0438 10.8604C19.9276 10.8902 21.8114 10.8852 23.6952 10.925C24.1081 10.9333 24.2573 10.7842 24.3585 10.4097C25.3302 7.05471 26.3219 3.70631 27.3069 0.356212C27.3666 0.154112 27.4197 -0.00158778 27.7032 1.22206e-05C29.8756 0.0166122 32.043 0.0133119 34.2103 0.0166119C34.2536 0.0248119 34.2958 0.0375121 34.3364 0.0547121Z" fill="#46C1F1"/>
</svg>
